<svg xmlns="http://www.w3.org/2000/svg" viewBox="0 0 16.033 16.033">
  <defs>
    <style>
      .cls-1 {
        fill: none;
        stroke: #313131;
        stroke-miterlimit: 10;
        stroke-width: 0.933px;
      }

      .cls-2 {
        fill: #313131;
      }
    </style>
  </defs>
  <g id="Facebook" transform="translate(-0.034 -0.034)">
    <path id="Path_4" data-name="Path 4" class="cls-1" d="M4.3,15.6h7.5a3.8,3.8,0,0,0,3.8-3.8V4.3A3.8,3.8,0,0,0,11.8.5H4.3A3.8,3.8,0,0,0,.5,4.3v7.5A3.8,3.8,0,0,0,4.3,15.6Z"/>
    <path id="Path_5" data-name="Path 5" class="cls-2" d="M10.5,3.1H9.2A2.257,2.257,0,0,0,6.8,5.5V6.6H5.6a.215.215,0,0,0-.2.2V8.4a.215.215,0,0,0,.2.2H6.9v4.1c0,.2.1.3.2.3H8.8a.215.215,0,0,0,.2-.2V8.7h1.5a.215.215,0,0,0,.2-.2V6.9c0-.1,0-.1-.1-.1l-.1-.1H8.9v-1A.632.632,0,0,1,9.6,5h.9a.215.215,0,0,0,.2-.2V3.3a.215.215,0,0,0-.2-.2Zm0,0"/>
  </g>
</svg>
