<svg width="25" height="25" viewBox="0 0 25 25" fill="none" xmlns="http://www.w3.org/2000/svg">
<path d="M12.5 25C19.4036 25 25 19.4035 25 12.5C25 5.59644 19.4036 0 12.5 0C5.59644 0 0 5.59644 0 12.5C0 19.4035 5.59644 25 12.5 25Z" fill="#ECECEC"/>
<path fill-rule="evenodd" clip-rule="evenodd" d="M15.907 5.771H14.1597C12.1742 5.771 10.9829 7.04173 10.9829 9.10666V10.6157H9.15623C9.07681 10.6157 8.91797 10.6951 8.91797 10.8539V13.0777C8.91797 13.2365 9.07681 13.316 9.15623 13.316H10.9035V18.8754C10.9035 19.0342 11.0623 19.1137 11.1417 19.1137H13.4449C13.6038 19.1137 13.6832 18.9548 13.6832 18.8754V13.316H15.7481C15.907 13.316 15.9864 13.1571 15.9864 13.0777V10.8539C15.9864 10.7745 15.9864 10.6951 15.907 10.6951C15.9864 10.6157 15.907 10.6157 15.8276 10.6157H13.7626V9.34492C13.7626 8.70956 13.9215 8.39188 14.7157 8.39188H15.907C16.0658 8.39188 16.1453 8.23303 16.1453 8.15361V6.00926C16.2247 5.92984 16.0658 5.771 15.907 5.771Z" fill="#272727"/>
</svg>
