<svg width="25" height="25" viewBox="0 0 25 25" fill="none" xmlns="http://www.w3.org/2000/svg">
<path d="M12.5 0C19.4036 0 25 5.59644 25 12.5C25 19.4035 19.4036 25 12.5 25C5.59644 25 0 19.4035 0 12.5C0 5.59644 5.59644 0 12.5 0Z" fill="#FF233D"/>
<g clip-path="url(#clip0)">
<path fill-rule="evenodd" clip-rule="evenodd" d="M15.0509 5.62109H9.76141C7.32605 5.62109 5.35352 7.59363 5.35352 10.029V15.3185C5.35352 17.7538 7.32605 19.7263 9.76141 19.7263H15.0509C17.4862 19.7263 19.4588 17.7538 19.4588 15.3185V10.029C19.4588 7.59363 17.4862 5.62109 15.0509 5.62109ZM18.1364 15.3185C18.1364 17.021 16.7534 18.404 15.0509 18.404H9.76141C8.05886 18.404 6.67588 17.021 6.67588 15.3185V10.029C6.67588 8.32644 8.05886 6.94346 9.76141 6.94346H15.0509C16.7534 6.94346 18.1364 8.32644 18.1364 10.029V15.3185Z" fill="white"/>
<path fill-rule="evenodd" clip-rule="evenodd" d="M12.4062 9.14697C10.4585 9.14697 8.87988 10.7256 8.87988 12.6733C8.87988 14.621 10.4585 16.1996 12.4062 16.1996C14.3539 16.1996 15.9325 14.621 15.9325 12.6733C15.9325 10.7256 14.3539 9.14697 12.4062 9.14697ZM12.4062 14.8773C11.1913 14.8773 10.2023 13.8882 10.2023 12.6733C10.2023 11.4584 11.1913 10.4694 12.4062 10.4694C13.6211 10.4694 14.6102 11.4584 14.6102 12.6733C14.6102 13.8882 13.6211 14.8773 12.4062 14.8773Z" fill="white"/>
<path d="M16.1967 9.35381C16.4569 9.35381 16.6678 9.14289 16.6678 8.88271C16.6678 8.62254 16.4569 8.41162 16.1967 8.41162C15.9365 8.41162 15.7256 8.62254 15.7256 8.88271C15.7256 9.14289 15.9365 9.35381 16.1967 9.35381Z" fill="white"/>
</g>
<defs>
<clipPath id="clip0">
<rect width="14.1053" height="14.1053" fill="white" transform="translate(5.35352 5.62109)"/>
</clipPath>
</defs>
</svg>
