<svg width="17" height="17" viewBox="0 0 17 17" fill="none" xmlns="http://www.w3.org/2000/svg">
<path d="M7.7 1C8.1 1 8.6 1 9 1.1C9.4 1.2 9.8 1.3 10.2 1.5C10.6 1.7 11 1.9 11.4 2.1C11.8 2.3 12.1 2.6 12.4 2.9C12.7 3.2 13 3.5 13.2 3.9C13.4 4.3 13.6 4.6 13.8 5C14 5.4 14.1 5.8 14.2 6.2C14.3 6.6 14.3 7 14.3 7.5C14.3 7.9 14.3 8.3 14.2 8.8C14.1 9.2 14 9.6 13.8 10C13.6 10.4 13.4 10.8 13.2 11.1C13 11.5 12.7 11.8 12.4 12.1C12.1 12.4 11.8 12.7 11.4 12.9C11 13.1 10.7 13.3 10.2 13.5C9.8 13.7 9.4 13.8 8.9 13.9C8.5 14 8 14 7.6 14C7.2 14 6.7 14 6.3 13.9C5.9 13.8 5.5 13.7 5.1 13.5C4.7 13.3 4.3 13.1 3.9 12.9C3.5 12.7 3.2 12.4 2.9 12.1C2.6 11.8 2.3 11.5 2.1 11.1C1.9 10.8 1.7 10.4 1.5 10C1.3 9.6 1.2 9.2 1.1 8.8C1 8.4 1 7.9 1 7.5C1 7.1 1 6.7 1.1 6.2C1.2 5.8 1.3 5.4 1.5 5C1.7 4.6 1.9 4.2 2.1 3.9C2.3 3.5 2.6 3.2 2.9 2.9C3.2 2.6 3.5 2.3 3.9 2.1C4.3 1.9 4.7 1.7 5.1 1.5C5.5 1.3 5.9 1.2 6.4 1.1C6.8 1 7.2 1 7.7 1Z" stroke="#A5A5A5" stroke-miterlimit="10"/>
<path d="M12.2002 12.2998L16.0002 15.9998" stroke="#A5A5A5" stroke-miterlimit="10"/>
</svg>
