<svg width="25" height="25" viewBox="0 0 25 25" fill="none" xmlns="http://www.w3.org/2000/svg">
<path d="M12.5 25C19.4036 25 25 19.4035 25 12.5C25 5.59644 19.4036 0 12.5 0C5.59644 0 0 5.59644 0 12.5C0 19.4035 5.59644 25 12.5 25Z" fill="#FF1B1B"/>
<path fill-rule="evenodd" clip-rule="evenodd" d="M19.0739 8.51089C18.6836 7.81739 18.2597 7.69104 17.4005 7.64051C16.5386 7.58435 14.3738 7.55908 12.5011 7.55908C10.6227 7.55908 8.45518 7.58435 7.59602 7.64051C6.73686 7.69104 6.3129 7.81739 5.91982 8.51089C5.51832 9.2044 5.31055 10.3977 5.31055 12.4978C5.31055 12.5006 5.31055 12.5006 5.31055 12.5006C5.31055 12.5034 5.31055 12.5034 5.31055 12.5034V12.5063C5.31055 14.598 5.51832 15.7997 5.91982 16.4848C6.3129 17.1783 6.73686 17.3046 7.59602 17.3636C8.45798 17.4141 10.6227 17.4422 12.5011 17.4422C14.3766 17.4422 16.5414 17.4113 17.4033 17.3636C18.2653 17.3046 18.6893 17.1783 19.0767 16.4848C19.481 15.7997 19.686 14.598 19.686 12.5063C19.686 12.5063 19.686 12.5034 19.686 12.5006V12.4978C19.686 10.3977 19.481 9.2044 19.0739 8.51089ZM10.7013 15.196V9.80524L15.1937 12.5006L10.7013 15.196Z" fill="white"/>
</svg>
